<svg width="32" height="32" viewBox="0 0 32 32" fill="none" xmlns="http://www.w3.org/2000/svg">
<rect width="32" height="32" rx="4" fill="#155DFC"/>
<path d="M21.8 23.3875L20 15.1875L23.5 11.6875C25 10.1875 25.5 8.1875 25 7.1875C24 6.6875 22 7.1875 20.5 8.6875L17 12.1875L8.8 10.3875C8.3 10.2875 7.9 10.4875 7.7 10.8875L7.4 11.3875C7.2 11.8875 7.3 12.3875 7.7 12.6875L13 16.1875L11 19.1875H8L7 20.1875L10 22.1875L12 25.1875L13 24.1875V21.1875L16 19.1875L19.5 24.4875C19.8 24.8875 20.3 24.9875 20.8 24.7875L21.3 24.5875C21.7 24.2875 21.9 23.8875 21.8 23.3875Z" stroke="white" stroke-width="2" stroke-linecap="round" stroke-linejoin="round"/>
</svg>
