<svg width="50" height="50" viewBox="0 0 50 50" fill="none" xmlns="http://www.w3.org/2000/svg">
<g clip-path="url(#clip0_3_5)">
<path d="M43.75 0H6.25C2.79822 0 0 2.79822 0 6.25V43.75C0 47.2018 2.79822 50 6.25 50H43.75C47.2018 50 50 47.2018 50 43.75V6.25C50 2.79822 47.2018 0 43.75 0Z" fill="#155DFC"/>
<path d="M34.0625 36.543L31.25 23.7305L36.7188 18.2617C39.0625 15.918 39.8438 12.793 39.0625 11.2305C37.5 10.4492 34.375 11.2305 32.0312 13.5742L26.5625 19.043L13.75 16.2305C12.9688 16.0742 12.3437 16.3867 12.0312 17.0117L11.5625 17.793C11.25 18.5742 11.4062 19.3555 12.0312 19.8242L20.3125 25.293L17.1875 29.9805H12.5L10.9375 31.543L15.625 34.668L18.75 39.3555L20.3125 37.793V33.1055L25 29.9805L30.4688 38.2617C30.9375 38.8867 31.7187 39.043 32.5 38.7305L33.2812 38.418C33.9062 37.9492 34.2187 37.3242 34.0625 36.543Z" stroke="white" stroke-width="2" stroke-linecap="round" stroke-linejoin="round"/>
</g>
<defs>
<clipPath id="clip0_3_5">
<rect width="50" height="50" fill="white"/>
</clipPath>
</defs>
</svg>
